<?xml version="1.0" encoding="utf-8"?>
<!-- Generator: Adobe Illustrator 24.3.0, SVG Export Plug-In . SVG Version: 6.00 Build 0)  -->
<svg version="1.1" id="Layer_1" xmlns="http://www.w3.org/2000/svg" xmlns:xlink="http://www.w3.org/1999/xlink" x="0px" y="0px"
	 viewBox="0 0 45.5 44.8" style="enable-background:new 0 0 45.5 44.8;" xml:space="preserve">
<style type="text/css">
	.st0{fill:#46B555;}
</style>
<path class="st0" d="M39,6.4C34.7,2.2,29,0,22.9,0c-3.2,0-6.2,0.5-9,1.7S8.6,4.4,6.6,6.4s-3.6,4.4-4.8,7.1c-2.4,5.4-2.4,12.4,0,17.8
	c1.2,2.8,2.8,5.1,4.8,7.2s4.5,3.5,7.2,4.7c5.4,2.2,12.5,2.2,18,0c2.8-1.2,5.1-2.7,7.2-4.7s3.6-4.4,4.8-7.2c2.4-5.4,2.4-12.4,0-17.8
	C42.6,10.8,41,8.5,39,6.4z M37.4,15.5c-0.2,0.4-0.4,0.9-0.6,1.3c0-0.1-0.1-0.1-0.1-0.2c-1.2-2.9-3.3-5.4-6-7c-0.1-0.1-0.3-0.1-0.5,0
	c-0.2,0.1-0.5,0.3-0.7,0.5c-0.3,0.3-0.6,0.7-0.7,1.3c-0.1,0.3-0.2,0.6-0.2,1c0,0.2,0.1,0.4,0.2,0.4c0.7,0.4,1.5,1,2.1,1.6
	c1.1,1,1.8,2.2,2.5,3.5c1.2,2.7,1.2,6.2,0,8.9c-0.5,1.3-1.4,2.6-2.4,3.5c-1.1,1-2.2,1.8-3.6,2.4c-2.7,1.2-6.3,1.2-9,0
	c-1.4-0.5-2.6-1.4-3.6-2.4s-1.8-2.2-2.5-3.5c-1.2-2.7-1.2-6.2,0-8.9c0.5-1.3,1.4-2.6,2.5-3.5s2.2-1.8,3.6-2.4
	c1.4-0.6,3.1-0.9,4.7-0.9c-0.3,1.9-0.1,4,0.5,5.7c0.9,2.4,2.7,4.2,5,5.2l0,0c1.1,0.4,2.1,0.6,3.2,0.7c0.1,0,0.2,0,0.3-0.1
	c0.1-0.1,0.1-0.2,0.1-0.3c0-1.1-0.2-2-0.5-3.1c-0.1-0.2-0.2-0.3-0.4-0.3c-0.4-0.1-1-0.2-1.4-0.4c-1.4-0.5-2.5-1.7-3-3.1
	s-0.5-3.3,0-4.8C27,10,27.5,9.3,28,8.8c0.5-0.5,1.2-1,1.8-1.2c1.4-0.5,3.2-0.5,4.5,0c0.6,0.3,1.3,0.7,1.8,1.2c0.5,0.5,1,1.2,1.2,1.9
	C38.1,12.1,38.1,14.1,37.4,15.5z"/>
</svg>
