<?xml version="1.0" encoding="UTF-8"?>
<svg width="14px" height="14px" viewBox="0 0 14 14" version="1.1" xmlns="http://www.w3.org/2000/svg" xmlns:xlink="http://www.w3.org/1999/xlink">
    <!-- Generator: Sketch 53.2 (72643) - https://sketchapp.com -->
    <title>Combined Shape</title>
    <desc>Created with Sketch.</desc>
    <g id="First-POC-Draft-5" stroke="none" stroke-width="1" fill="none" fill-rule="evenodd">
        <g id="W5G-006" transform="translate(-1104.000000, -173.000000)" fill="#9ba1b0">
            <g id="SO-TEMPLATE" transform="translate(631.000000, 152.000000)">
                <g id="Session-Length" transform="translate(14.000000, 14.000000)">
                    <path d="M466,12.3814871 L470.148432,8.23305534 C470.538956,7.84253105 471.172121,7.84253105 471.562645,8.23305534 L471.766945,8.43735464 C472.157469,8.82787893 472.157469,9.46104391 471.766945,9.8515682 L467.618513,14 L471.766945,18.1484318 C472.157469,18.5389561 472.157469,19.1721211 471.766945,19.5626454 L471.562645,19.7669447 C471.172121,20.157469 470.538956,20.157469 470.148432,19.7669447 L466,15.6185129 L461.851568,19.7669447 C461.461044,20.157469 460.827879,20.157469 460.437355,19.7669447 L460.233055,19.5626454 C459.842531,19.1721211 459.842531,18.5389561 460.233055,18.1484318 L464.381487,14 L460.233055,9.8515682 C459.842531,9.46104391 459.842531,8.82787893 460.233055,8.43735464 L460.437355,8.23305534 C460.827879,7.84253105 461.461044,7.84253105 461.851568,8.23305534 L466,12.3814871 Z" id="Combined-Shape"></path>
                </g>
            </g>
        </g>
    </g>
</svg>